<svg xmlns="http://www.w3.org/2000/svg" version="1.1" xmlns:xlink="http://www.w3.org/1999/xlink" xmlns:svgjs="http://svgjs.dev/svgjs" width="1500" height="1500" viewBox="0 0 1500 1500"><rect width="1500" height="1500" fill="#000000"></rect><g transform="matrix(0.6666666666666666,0,0,0.6666666666666666,250.10666666666668,622.74292)"><svg viewBox="0 0 375 95" data-background-color="#051726" preserveAspectRatio="xMidYMid meet" height="380" width="1500" xmlns="http://www.w3.org/2000/svg" xmlns:xlink="http://www.w3.org/1999/xlink"><g id="tight-bounds" transform="matrix(1,0,0,1,-0.03976000000000113,0.22163499999999203)"><svg viewBox="0 0 375.07953 94.55696000000003" height="94.55696000000003" width="375.07953"><g><svg></svg></g><g><svg viewBox="0 0 375.07953 94.55696000000003" height="94.55696000000003" width="375.07953"><g transform="matrix(1,0,0,1,-10.22024,-79.52523)"><path d="M10.22 167.675v-88.15h375.08v88.15l-20.228 0v-3.035h17.193v-82.08h-369.01v82.08h32.634l0 3.035z" fill="#ffffff" fill-rule="nonzero" stroke="none" stroke-width="1" stroke-linecap="butt" stroke-linejoin="miter" stroke-miterlimit="10" stroke-dasharray="" stroke-dashoffset="0" font-family="none" font-weight="none" font-size="none" text-anchor="none" style="mix-blend-mode: normal" data-fill-palette-color="tertiary"></path><g><path d="M60.196 159.14l-1.641 0.367v10.159l1.641 0.366v0.838h-5.202v-0.838l1.641-0.366v-10.159l-1.641-0.367v-0.838h5.202zM62.395 170.067l1.344-0.331v-11.347l-1.344-0.331v-0.803h3.212v12.481l1.344 0.331v0.803h-4.556zM68.924 170.067l1.344-0.331v-11.347l-1.344-0.331v-0.803h3.212v12.481l1.344 0.331v0.803h-4.556zM75.47 161.444h3.037v4.853c0 0.745 0.021 1.306 0.063 1.683 0.04 0.379 0.106 0.674 0.199 0.883v0c0.116 0.279 0.297 0.491 0.541 0.635 0.244 0.147 0.512 0.22 0.803 0.22v0c0.314 0 0.611-0.058 0.89-0.174 0.279-0.116 0.529-0.273 0.751-0.472v0c0.477-0.431 0.739-1.1 0.785-2.007v0-4.486l-1.518-0.332v-0.803h3.386v8.292l1.344 0.331v0.803l-2.88 0.175-0.192-1.92h-0.07c-0.337 0.594-0.797 1.061-1.379 1.403-0.582 0.344-1.204 0.517-1.868 0.517v0c-0.442 0-0.846-0.085-1.211-0.255-0.368-0.168-0.656-0.397-0.866-0.688v0c-0.221-0.326-0.384-0.786-0.489-1.379-0.105-0.594-0.157-1.385-0.157-2.374v0-3.77l-1.169-0.332zM87.793 170.067l1.345-0.331v-7.157l-1.345-0.332v-0.803h2.689l0.384 1.746h0.07c0.337-0.582 0.789-1.047 1.354-1.397 0.563-0.349 1.165-0.524 1.805-0.523v0c0.477 0 0.902 0.09 1.274 0.268 0.372 0.182 0.646 0.406 0.821 0.674v0c0.186 0.291 0.337 0.675 0.454 1.152v0c0.372-0.652 0.855-1.164 1.448-1.536 0.594-0.372 1.228-0.559 1.903-0.558v0c0.465 0 0.884 0.09 1.257 0.268 0.372 0.182 0.657 0.429 0.855 0.744v0c0.14 0.221 0.25 0.506 0.332 0.855 0.081 0.349 0.14 0.799 0.174 1.351 0.035 0.554 0.052 1.256 0.053 2.106v0 3.142l1.344 0.331v0.803h-4.382v-0.803l1.17-0.331v-3.718c0-0.756-0.02-1.321-0.059-1.694-0.042-0.372-0.115-0.663-0.22-0.872v0c-0.128-0.279-0.308-0.486-0.541-0.622-0.233-0.133-0.495-0.199-0.786-0.199v0c-0.291 0-0.57 0.052-0.838 0.157-0.268 0.105-0.512 0.256-0.733 0.454v0c-0.256 0.233-0.445 0.506-0.565 0.821-0.123 0.314-0.197 0.71-0.22 1.187v0 4.486l1.169 0.331v0.803h-4.207v-0.803l1.17-0.331v-3.718c0-0.756-0.02-1.321-0.06-1.694-0.042-0.372-0.115-0.663-0.219-0.872v0c-0.128-0.279-0.308-0.486-0.542-0.622-0.233-0.133-0.495-0.199-0.785-0.199v0c-0.291 0-0.57 0.052-0.838 0.157-0.268 0.105-0.512 0.256-0.733 0.454v0c-0.256 0.233-0.445 0.506-0.566 0.821-0.123 0.314-0.197 0.71-0.22 1.187v0 4.486l1.17 0.331v0.803h-4.382zM107.327 169.736v-7.157l-1.345-0.332v-0.803h3.212v8.292l1.344 0.331v0.803h-4.556v-0.803zM107.1 158.686v0c0-0.349 0.105-0.628 0.314-0.838 0.209-0.209 0.489-0.314 0.838-0.314v0c0.361 0 0.646 0.105 0.855 0.314 0.209 0.209 0.314 0.489 0.314 0.838v0c0 0.337-0.101 0.611-0.304 0.821-0.205 0.209-0.493 0.314-0.865 0.314v0c-0.361 0-0.642-0.101-0.845-0.304-0.205-0.205-0.307-0.482-0.307-0.831zM112.581 170.067l1.344-0.331v-7.157l-1.344-0.332v-0.803h2.688l0.384 1.746h0.07c0.349-0.594 0.82-1.062 1.414-1.407 0.594-0.342 1.228-0.513 1.902-0.513v0c0.966 0 1.682 0.314 2.147 0.942v0c0.233 0.326 0.399 0.782 0.5 1.369 0.098 0.589 0.147 1.384 0.146 2.384v0 3.771l1.344 0.331v0.803h-4.381v-0.803l1.17-0.331v-3.718c0-0.733-0.02-1.289-0.06-1.669-0.042-0.377-0.115-0.676-0.22-0.897v0c-0.128-0.291-0.317-0.504-0.565-0.639-0.251-0.133-0.546-0.199-0.884-0.199v0c-0.64 0-1.193 0.204-1.658 0.611v0c-0.477 0.442-0.739 1.117-0.785 2.025v0 4.486l1.169 0.331v0.803h-4.381zM125.184 168.828v0c0-0.931 0.431-1.658 1.292-2.182 0.861-0.524 2.263-0.931 4.206-1.222v0c-0.047-0.652-0.111-1.158-0.192-1.519-0.081-0.361-0.186-0.657-0.314-0.89v0c-0.151-0.291-0.361-0.512-0.628-0.663-0.268-0.151-0.57-0.227-0.908-0.227v0c-0.303 0-0.576 0.055-0.82 0.164-0.244 0.112-0.407 0.261-0.489 0.447v0c0.163 0.105 0.279 0.247 0.349 0.426 0.07 0.182 0.105 0.348 0.105 0.499v0c0 0.291-0.105 0.529-0.314 0.716-0.209 0.186-0.471 0.279-0.786 0.279v0c-0.303 0-0.549-0.102-0.74-0.307-0.193-0.202-0.29-0.472-0.29-0.81v0c0-0.489 0.169-0.902 0.506-1.239 0.337-0.337 0.768-0.594 1.292-0.769 0.524-0.175 1.047-0.262 1.571-0.261v0c0.5 0 0.958 0.076 1.372 0.227 0.412 0.151 0.758 0.355 1.037 0.61v0c0.78 0.756 1.17 2.042 1.17 3.858v0 2.444c0 0.57 0.038 0.966 0.115 1.187 0.074 0.221 0.24 0.332 0.495 0.332v0h0.786v0.611c-0.908 0.337-1.612 0.506-2.112 0.506v0c-0.361 0-0.605-0.132-0.733-0.395-0.128-0.261-0.192-0.763-0.192-1.508v0h-0.07c-0.361 0.594-0.838 1.059-1.431 1.397-0.594 0.337-1.234 0.506-1.921 0.506v0c-0.733 0-1.309-0.198-1.728-0.594-0.419-0.396-0.628-0.937-0.628-1.623zM128.396 169.945v0c0.291 0 0.605-0.085 0.942-0.255 0.337-0.168 0.623-0.397 0.856-0.687v0c0.175-0.209 0.308-0.471 0.401-0.786 0.093-0.314 0.14-0.687 0.14-1.117v0c0-0.175-0.006-0.355-0.018-0.541-0.012-0.186-0.029-0.367-0.052-0.541v0c-0.896 0.186-1.597 0.384-2.102 0.593-0.507 0.209-0.868 0.46-1.082 0.751-0.216 0.291-0.325 0.646-0.325 1.065v0c0 0.5 0.116 0.879 0.349 1.134 0.233 0.256 0.529 0.384 0.891 0.384zM136.897 162.404h-1.694v-0.715l1.694-0.245 0.227-2.182 1.64-0.244v2.426h2.235v0.96h-2.235v6.057c0 0.396 0.006 0.666 0.018 0.81 0.012 0.147 0.035 0.266 0.07 0.36v0c0.035 0.081 0.099 0.136 0.192 0.164 0.093 0.03 0.244 0.045 0.454 0.045v0h1.221v0.594c-0.605 0.209-1.135 0.364-1.588 0.464-0.454 0.098-0.815 0.147-1.082 0.147v0c-0.524 0-0.861-0.215-1.013-0.646v0c-0.047-0.14-0.081-0.32-0.104-0.541-0.023-0.221-0.035-0.547-0.035-0.978v0zM144.141 169.736v-7.157l-1.344-0.332v-0.803h3.212v8.292l1.344 0.331v0.803h-4.556v-0.803zM143.914 158.686v0c0-0.349 0.105-0.628 0.314-0.838 0.209-0.209 0.489-0.314 0.838-0.314v0c0.361 0 0.646 0.105 0.855 0.314 0.209 0.209 0.314 0.489 0.315 0.838v0c0 0.337-0.101 0.611-0.304 0.821-0.205 0.209-0.493 0.314-0.866 0.314v0c-0.361 0-0.642-0.101-0.845-0.304-0.205-0.205-0.307-0.482-0.307-0.831zM149.395 170.067l1.344-0.331v-7.157l-1.344-0.332v-0.803h2.688l0.384 1.746h0.07c0.349-0.594 0.82-1.062 1.414-1.407 0.594-0.342 1.228-0.513 1.903-0.513v0c0.966 0 1.682 0.314 2.147 0.942v0c0.233 0.326 0.399 0.782 0.499 1.369 0.098 0.589 0.147 1.384 0.147 2.384v0 3.771l1.344 0.331v0.803h-4.382v-0.803l1.17-0.331v-3.718c0-0.733-0.02-1.289-0.06-1.669-0.042-0.377-0.115-0.676-0.219-0.897v0c-0.128-0.291-0.317-0.504-0.566-0.639-0.251-0.133-0.546-0.199-0.883-0.199v0c-0.64 0-1.193 0.204-1.659 0.611v0c-0.477 0.442-0.739 1.117-0.785 2.025v0 4.486l1.169 0.331v0.803h-4.381zM170.359 171.027v0c0 0.943-0.378 1.687-1.134 2.235-0.756 0.547-1.862 0.82-3.317 0.82v0c-0.838 0-1.559-0.081-2.164-0.244-0.605-0.163-1.071-0.407-1.397-0.733-0.326-0.326-0.489-0.727-0.489-1.205v0c0-0.547 0.166-0.975 0.5-1.285 0.331-0.307 0.792-0.49 1.386-0.548v0-0.069c-0.803-0.233-1.204-0.681-1.205-1.345v0c0-0.244 0.058-0.481 0.175-0.708 0.116-0.226 0.3-0.435 0.551-0.629 0.249-0.191 0.566-0.339 0.95-0.443v0c-0.582-0.186-1.036-0.506-1.362-0.96-0.326-0.454-0.489-1.001-0.488-1.641v0c0-0.931 0.32-1.664 0.96-2.199 0.64-0.535 1.519-0.803 2.636-0.803v0c0.617 0 1.144 0.066 1.581 0.199 0.435 0.135 0.81 0.336 1.124 0.604v0l0.594-0.21 1.606-0.768h0.296v1.623h-0.296l-1.222-0.139h-0.541c0.303 0.431 0.454 0.96 0.453 1.588v0c0 0.931-0.311 1.664-0.932 2.2-0.624 0.535-1.494 0.803-2.611 0.803v0c-0.116 0-0.233-0.003-0.349-0.011-0.116-0.005-0.233-0.013-0.349-0.024v0c-0.454 0.07-0.803 0.186-1.048 0.349-0.244 0.163-0.367 0.378-0.366 0.646v0c0 0.256 0.108 0.427 0.324 0.513 0.214 0.088 0.618 0.133 1.212 0.133v0h2.025c0.954 0 1.676 0.184 2.164 0.551 0.489 0.365 0.733 0.932 0.733 1.7zM166.519 170.207v0h-0.96c-0.78 0-1.344 0.13-1.693 0.391-0.349 0.263-0.524 0.604-0.524 1.023v0c0 1.001 0.884 1.501 2.653 1.501v0c0.954 0 1.682-0.145 2.182-0.436 0.5-0.291 0.751-0.71 0.751-1.257v0c0-0.454-0.177-0.772-0.531-0.953-0.356-0.179-0.982-0.269-1.878-0.269zM164.075 164.202v0c0 0.687 0.155 1.207 0.465 1.561 0.307 0.356 0.769 0.534 1.386 0.534v0c0.663 0 1.15-0.178 1.459-0.534 0.307-0.354 0.461-0.874 0.461-1.561v0c0-0.675-0.154-1.185-0.461-1.529-0.31-0.342-0.796-0.513-1.459-0.513v0c-0.617 0-1.079 0.171-1.386 0.513-0.31 0.344-0.464 0.854-0.465 1.529zM186.052 162.3v4.608h-1.065l-0.296-1.728h-2.741v4.434l2.042 0.331v0.925h-5.603v-0.838l1.641-0.418v-10.107l-1.641-0.367v-0.838h10.002v3.736h-1.117l-0.558-2.636h-4.766v4.643h2.741l0.296-1.745zM191.848 169.736v-7.157l-1.345-0.332v-0.803h3.212v8.292l1.344 0.331v0.803h-4.556v-0.803zM191.621 158.686v0c0-0.349 0.105-0.628 0.314-0.838 0.209-0.209 0.489-0.314 0.838-0.314v0c0.361 0 0.646 0.105 0.855 0.314 0.209 0.209 0.314 0.489 0.314 0.838v0c0 0.337-0.101 0.611-0.304 0.821-0.205 0.209-0.493 0.314-0.865 0.314v0c-0.361 0-0.642-0.101-0.845-0.304-0.205-0.205-0.307-0.482-0.307-0.831zM197.102 170.067l1.344-0.331v-7.157l-1.344-0.332v-0.803h2.688l0.384 1.746h0.07c0.349-0.594 0.82-1.062 1.414-1.407 0.594-0.342 1.228-0.513 1.902-0.513v0c0.966 0 1.682 0.314 2.147 0.942v0c0.233 0.326 0.399 0.782 0.5 1.369 0.098 0.589 0.147 1.384 0.146 2.384v0 3.771l1.344 0.331v0.803h-4.381v-0.803l1.17-0.331v-3.718c0-0.733-0.02-1.289-0.06-1.669-0.042-0.377-0.115-0.676-0.22-0.897v0c-0.128-0.291-0.317-0.504-0.565-0.639-0.251-0.133-0.546-0.199-0.884-0.199v0c-0.64 0-1.193 0.204-1.658 0.611v0c-0.477 0.442-0.739 1.117-0.785 2.025v0 4.486l1.169 0.331v0.803h-4.381zM209.705 168.828v0c0-0.931 0.431-1.658 1.292-2.182 0.861-0.524 2.263-0.931 4.206-1.222v0c-0.047-0.652-0.111-1.158-0.192-1.519-0.081-0.361-0.186-0.657-0.314-0.89v0c-0.151-0.291-0.361-0.512-0.628-0.663-0.268-0.151-0.57-0.227-0.908-0.227v0c-0.303 0-0.576 0.055-0.82 0.164-0.244 0.112-0.407 0.261-0.489 0.447v0c0.163 0.105 0.279 0.247 0.349 0.426 0.07 0.182 0.105 0.348 0.105 0.499v0c0 0.291-0.105 0.529-0.314 0.716-0.209 0.186-0.471 0.279-0.786 0.279v0c-0.303 0-0.549-0.102-0.74-0.307-0.193-0.202-0.29-0.472-0.29-0.81v0c0-0.489 0.169-0.902 0.506-1.239 0.337-0.337 0.768-0.594 1.292-0.769 0.524-0.175 1.047-0.262 1.571-0.261v0c0.5 0 0.958 0.076 1.372 0.227 0.412 0.151 0.758 0.355 1.037 0.61v0c0.78 0.756 1.17 2.042 1.17 3.858v0 2.444c0 0.57 0.038 0.966 0.115 1.187 0.074 0.221 0.24 0.332 0.496 0.332v0h0.785v0.611c-0.908 0.337-1.612 0.506-2.112 0.506v0c-0.361 0-0.605-0.132-0.733-0.395-0.128-0.261-0.192-0.763-0.192-1.508v0h-0.07c-0.361 0.594-0.838 1.059-1.431 1.397-0.594 0.337-1.234 0.506-1.921 0.506v0c-0.733 0-1.309-0.198-1.728-0.594-0.419-0.396-0.628-0.937-0.628-1.623zM212.917 169.945v0c0.291 0 0.605-0.085 0.942-0.255 0.337-0.168 0.623-0.397 0.856-0.687v0c0.175-0.209 0.308-0.471 0.401-0.786 0.093-0.314 0.14-0.687 0.14-1.117v0c0-0.175-0.006-0.355-0.018-0.541-0.012-0.186-0.029-0.367-0.052-0.541v0c-0.896 0.186-1.597 0.384-2.102 0.593-0.507 0.209-0.868 0.46-1.082 0.751-0.216 0.291-0.325 0.646-0.325 1.065v0c0 0.5 0.116 0.879 0.349 1.134 0.233 0.256 0.529 0.384 0.891 0.384zM220.178 170.067l1.344-0.331v-7.157l-1.344-0.332v-0.803h2.689l0.384 1.746h0.069c0.349-0.594 0.82-1.062 1.414-1.407 0.594-0.342 1.228-0.513 1.903-0.513v0c0.966 0 1.682 0.314 2.147 0.942v0c0.233 0.326 0.399 0.782 0.499 1.369 0.098 0.589 0.147 1.384 0.147 2.384v0 3.771l1.344 0.331v0.803h-4.381v-0.803l1.169-0.331v-3.718c0-0.733-0.02-1.289-0.059-1.669-0.042-0.377-0.115-0.676-0.22-0.897v0c-0.128-0.291-0.317-0.504-0.566-0.639-0.251-0.133-0.546-0.199-0.883-0.199v0c-0.64 0-1.193 0.204-1.658 0.611v0c-0.477 0.442-0.739 1.117-0.786 2.025v0 4.486l1.17 0.331v0.803h-4.382zM237.425 161.27v0c0.698 0 1.303 0.113 1.815 0.338 0.512 0.228 0.914 0.546 1.205 0.953 0.291 0.407 0.436 0.884 0.436 1.432v0c0 0.465-0.107 0.82-0.321 1.065-0.216 0.244-0.511 0.367-0.884 0.366v0c-0.372 0-0.652-0.108-0.837-0.325-0.186-0.214-0.279-0.478-0.28-0.792v0c0-0.291 0.076-0.541 0.227-0.751 0.151-0.209 0.367-0.355 0.646-0.436v0c-0.163-0.291-0.407-0.51-0.733-0.656-0.326-0.144-0.716-0.216-1.17-0.217v0c-0.884 0-1.538 0.297-1.962 0.89-0.426 0.594-0.639 1.559-0.639 2.898v0c0 0.594 0.038 1.088 0.116 1.484 0.074 0.396 0.187 0.733 0.338 1.012v0c0.221 0.396 0.506 0.704 0.856 0.925 0.349 0.221 0.774 0.332 1.274 0.332v0c0.524 0 1.036-0.116 1.536-0.349 0.5-0.233 0.925-0.57 1.274-1.012v0l0.664 0.523c-0.489 0.722-1.055 1.251-1.701 1.589-0.647 0.337-1.378 0.506-2.192 0.506v0c-0.826 0-1.538-0.166-2.137-0.499-0.6-0.331-1.069-0.816-1.407-1.456v0c-0.419-0.78-0.628-1.722-0.628-2.828v0c0-1.012 0.184-1.891 0.552-2.636 0.365-0.745 0.889-1.324 1.571-1.738 0.68-0.412 1.473-0.618 2.381-0.618zM244.564 169.736v-7.157l-1.344-0.332v-0.803h3.212v8.292l1.344 0.331v0.803h-4.556v-0.803zM244.337 158.686v0c0-0.349 0.105-0.628 0.314-0.838 0.209-0.209 0.489-0.314 0.838-0.314v0c0.361 0 0.646 0.105 0.856 0.314 0.209 0.209 0.314 0.489 0.314 0.838v0c0 0.337-0.101 0.611-0.304 0.821-0.205 0.209-0.493 0.314-0.866 0.314v0c-0.361 0-0.642-0.101-0.845-0.304-0.205-0.205-0.307-0.482-0.307-0.831zM249.836 168.828v0c0-0.931 0.431-1.658 1.291-2.182 0.861-0.524 2.263-0.931 4.207-1.222v0c-0.047-0.652-0.111-1.158-0.192-1.519-0.081-0.361-0.186-0.657-0.314-0.89v0c-0.151-0.291-0.361-0.512-0.628-0.663-0.268-0.151-0.57-0.227-0.908-0.227v0c-0.303 0-0.576 0.055-0.82 0.164-0.244 0.112-0.407 0.261-0.489 0.447v0c0.163 0.105 0.279 0.247 0.349 0.426 0.07 0.182 0.105 0.348 0.105 0.499v0c0 0.291-0.105 0.529-0.315 0.716-0.209 0.186-0.471 0.279-0.785 0.279v0c-0.303 0-0.549-0.102-0.74-0.307-0.193-0.202-0.29-0.472-0.29-0.81v0c0-0.489 0.169-0.902 0.506-1.239 0.337-0.337 0.768-0.594 1.292-0.769 0.524-0.175 1.047-0.262 1.571-0.261v0c0.5 0 0.958 0.076 1.372 0.227 0.412 0.151 0.758 0.355 1.037 0.61v0c0.78 0.756 1.17 2.042 1.169 3.858v0 2.444c0 0.57 0.038 0.966 0.116 1.187 0.074 0.221 0.24 0.332 0.495 0.332v0h0.786v0.611c-0.908 0.337-1.612 0.506-2.112 0.506v0c-0.361 0-0.605-0.132-0.733-0.395-0.128-0.261-0.192-0.763-0.192-1.508v0h-0.07c-0.361 0.594-0.838 1.059-1.432 1.397-0.594 0.337-1.234 0.506-1.92 0.506v0c-0.733 0-1.309-0.198-1.728-0.594-0.419-0.396-0.628-0.937-0.628-1.623zM253.048 169.945v0c0.291 0 0.605-0.085 0.942-0.255 0.337-0.168 0.623-0.397 0.856-0.687v0c0.175-0.209 0.308-0.471 0.401-0.786 0.093-0.314 0.14-0.687 0.14-1.117v0c0-0.175-0.006-0.355-0.018-0.541-0.012-0.186-0.029-0.367-0.052-0.541v0c-0.896 0.186-1.597 0.384-2.102 0.593-0.507 0.209-0.868 0.46-1.082 0.751-0.216 0.291-0.325 0.646-0.325 1.065v0c0 0.5 0.116 0.879 0.349 1.134 0.233 0.256 0.529 0.384 0.891 0.384zM260.17 170.067l1.344-0.331v-11.347l-1.344-0.331v-0.803h3.211v12.481l1.345 0.331v0.803h-4.556zM284.939 159.14l-1.466 0.367v10.159l1.466 0.366v0.838h-4.852v-0.838l1.466-0.366v-4.696h-5.743v4.696l1.466 0.366v0.838h-4.852v-0.838l1.466-0.366v-10.159l-1.466-0.367v-0.838h4.852v0.838l-1.466 0.367v4.364h5.743v-4.364l-1.466-0.367v-0.838h4.852zM295.884 166.105v0c0 0.745-0.111 1.455-0.331 2.13-0.221 0.675-0.535 1.234-0.943 1.675v0c-0.361 0.396-0.803 0.683-1.327 0.863-0.524 0.182-1.123 0.272-1.798 0.272v0c-0.663 0-1.253-0.091-1.77-0.272-0.519-0.179-0.959-0.461-1.319-0.845v0c-0.396-0.431-0.701-0.966-0.915-1.606-0.216-0.64-0.325-1.332-0.325-2.077v0c0-0.756 0.111-1.476 0.332-2.158 0.221-0.68 0.535-1.241 0.943-1.683v0c0.384-0.396 0.83-0.684 1.337-0.866 0.505-0.179 1.095-0.269 1.77-0.268v0c0.663 0 1.257 0.09 1.78 0.268 0.524 0.182 0.966 0.464 1.327 0.849v0c0.407 0.431 0.716 0.972 0.925 1.623 0.209 0.652 0.314 1.35 0.314 2.095zM289.391 167.117v0c0.047 0.547 0.151 1.012 0.314 1.397 0.163 0.384 0.372 0.692 0.628 0.925v0c0.256 0.186 0.521 0.314 0.796 0.384 0.272 0.07 0.577 0.07 0.915 0v0c0.663-0.198 1.129-0.716 1.396-1.554v0c0.14-0.454 0.227-0.943 0.262-1.466 0.035-0.524 0.017-1.065-0.052-1.623v0c-0.047-0.535-0.151-0.998-0.314-1.39-0.163-0.389-0.372-0.694-0.629-0.914v0c-0.244-0.198-0.506-0.329-0.785-0.395-0.279-0.063-0.594-0.059-0.943 0.011v0c-0.663 0.198-1.117 0.716-1.361 1.553v0c-0.279 0.908-0.355 1.932-0.227 3.072zM303.53 162.544v0c-0.035-0.023-0.072-0.041-0.112-0.052-0.042-0.012-0.086-0.017-0.133-0.018v0c-0.128 0-0.273 0.07-0.436 0.21-0.163 0.14-0.317 0.314-0.461 0.523-0.147 0.209-0.272 0.436-0.377 0.681v0c-0.163 0.396-0.291 0.82-0.384 1.274-0.093 0.454-0.14 0.948-0.14 1.484v0 3.09l1.886 0.331v0.803h-5.097v-0.803l1.344-0.331v-7.244l-1.344-0.332v-0.716h2.688l0.384 2.304h0.07c0.268-0.791 0.628-1.402 1.082-1.833 0.454-0.431 0.954-0.646 1.501-0.645v0c0.454 0 0.832 0.142 1.135 0.426 0.303 0.286 0.454 0.668 0.454 1.145v0c0 0.349-0.095 0.64-0.287 0.872-0.193 0.233-0.453 0.349-0.778 0.35v0c-0.361 0-0.631-0.102-0.81-0.308-0.182-0.202-0.272-0.449-0.272-0.74v0c0-0.07 0.003-0.134 0.01-0.192 0.005-0.058 0.03-0.151 0.077-0.279zM308.749 169.736v-7.157l-1.344-0.332v-0.803h3.212v8.292l1.344 0.331v0.803h-4.556v-0.803zM308.522 158.686v0c0-0.349 0.105-0.628 0.314-0.838 0.209-0.209 0.489-0.314 0.838-0.314v0c0.361 0 0.646 0.105 0.856 0.314 0.209 0.209 0.314 0.489 0.314 0.838v0c0 0.337-0.101 0.611-0.304 0.821-0.205 0.209-0.493 0.314-0.866 0.314v0c-0.361 0-0.642-0.101-0.845-0.304-0.205-0.205-0.307-0.482-0.307-0.831zM316.36 169.806h4.172l0.349-2.374h1.169v3.438h-7.907v-1.064l5.638-7.297h-3.823l-0.419 2.287h-1.169v-3.352h7.611v1.065zM333.449 166.105v0c0 0.745-0.111 1.455-0.332 2.13-0.221 0.675-0.535 1.234-0.942 1.675v0c-0.361 0.396-0.803 0.683-1.327 0.863-0.524 0.182-1.123 0.272-1.798 0.272v0c-0.663 0-1.253-0.091-1.77-0.272-0.519-0.179-0.959-0.461-1.319-0.845v0c-0.396-0.431-0.701-0.966-0.915-1.606-0.216-0.64-0.325-1.332-0.325-2.077v0c0-0.756 0.111-1.476 0.332-2.158 0.221-0.68 0.535-1.241 0.942-1.683v0c0.384-0.396 0.83-0.684 1.338-0.866 0.505-0.179 1.095-0.269 1.77-0.268v0c0.663 0 1.257 0.09 1.78 0.268 0.524 0.182 0.966 0.464 1.327 0.849v0c0.407 0.431 0.716 0.972 0.925 1.623 0.209 0.652 0.314 1.35 0.314 2.095zM326.956 167.117v0c0.047 0.547 0.151 1.012 0.314 1.397 0.163 0.384 0.372 0.692 0.628 0.925v0c0.256 0.186 0.521 0.314 0.796 0.384 0.272 0.07 0.577 0.07 0.915 0v0c0.663-0.198 1.129-0.716 1.396-1.554v0c0.14-0.454 0.227-0.943 0.262-1.466 0.035-0.524 0.017-1.065-0.052-1.623v0c-0.047-0.535-0.151-0.998-0.314-1.39-0.163-0.389-0.372-0.694-0.629-0.914v0c-0.244-0.198-0.506-0.329-0.785-0.395-0.279-0.063-0.594-0.059-0.943 0.011v0c-0.663 0.198-1.117 0.716-1.362 1.553v0c-0.279 0.908-0.355 1.932-0.227 3.072zM335.841 170.067l1.344-0.331v-7.157l-1.344-0.332v-0.803h2.688l0.384 1.746h0.07c0.349-0.594 0.82-1.062 1.413-1.407 0.594-0.342 1.228-0.513 1.903-0.513v0c0.966 0 1.682 0.314 2.147 0.942v0c0.233 0.326 0.399 0.782 0.499 1.369 0.098 0.589 0.147 1.384 0.147 2.384v0 3.771l1.344 0.331v0.803h-4.381v-0.803l1.169-0.331v-3.718c0-0.733-0.02-1.289-0.059-1.669-0.042-0.377-0.115-0.676-0.22-0.897v0c-0.128-0.291-0.317-0.504-0.566-0.639-0.251-0.133-0.546-0.199-0.883-0.199v0c-0.64 0-1.193 0.204-1.658 0.611v0c-0.477 0.442-0.739 1.117-0.786 2.025v0 4.486l1.17 0.331v0.803h-4.381zM352.092 170.155v0c0.628 0 1.15-0.126 1.564-0.377 0.412-0.249 0.618-0.6 0.618-1.055v0c0-0.361-0.128-0.655-0.384-0.883-0.256-0.226-0.573-0.408-0.95-0.548-0.379-0.14-0.761-0.268-1.145-0.384v0c-0.477-0.151-0.937-0.332-1.379-0.541-0.442-0.209-0.803-0.5-1.082-0.873-0.279-0.372-0.419-0.855-0.419-1.449v0c0-0.838 0.306-1.511 0.918-2.018 0.61-0.505 1.462-0.758 2.556-0.757v0c0.978 0 1.755 0.204 2.332 0.611 0.575 0.407 0.862 0.954 0.862 1.64v0c0 0.372-0.09 0.666-0.269 0.88-0.182 0.216-0.435 0.325-0.761 0.325v0c-0.303 0-0.547-0.084-0.733-0.251-0.186-0.17-0.279-0.377-0.279-0.622v0c0-0.221 0.058-0.422 0.174-0.604 0.116-0.179 0.268-0.31 0.454-0.391v0c-0.175-0.233-0.398-0.407-0.67-0.524-0.275-0.116-0.621-0.175-1.041-0.174v0c-0.652 0-1.137 0.122-1.455 0.366-0.321 0.244-0.482 0.594-0.482 1.048v0c0 0.337 0.079 0.609 0.237 0.813 0.156 0.202 0.385 0.37 0.688 0.503 0.303 0.135 0.669 0.272 1.1 0.412v0c0.419 0.128 0.83 0.264 1.232 0.408 0.4 0.147 0.767 0.327 1.1 0.542 0.331 0.216 0.595 0.482 0.792 0.796 0.198 0.314 0.297 0.704 0.297 1.169v0c0 0.594-0.171 1.102-0.513 1.526-0.344 0.426-0.813 0.749-1.407 0.97-0.594 0.221-1.268 0.332-2.025 0.332v0c-1.047 0-1.885-0.209-2.514-0.629-0.628-0.419-0.943-0.978-0.942-1.675v0c0-0.407 0.099-0.727 0.297-0.96 0.198-0.233 0.465-0.349 0.803-0.349v0c0.279 0 0.524 0.081 0.733 0.244 0.209 0.163 0.314 0.378 0.314 0.646v0c0 0.221-0.064 0.431-0.192 0.628-0.128 0.198-0.273 0.343-0.437 0.437v0c0.14 0.209 0.384 0.39 0.734 0.541 0.349 0.151 0.774 0.227 1.274 0.227z" fill="#ffffff" fill-rule="nonzero" stroke="none" stroke-width="1" stroke-linecap="butt" stroke-linejoin="miter" stroke-miterlimit="10" stroke-dasharray="" stroke-dashoffset="0" font-family="none" font-weight="none" font-size="none" text-anchor="none" style="mix-blend-mode: normal" data-fill-palette-color="secondary" id="text-1"></path></g></g><g transform="matrix(1,0,0,1,29.33176499999999,30.451079697677635)"><svg viewBox="0 0 316.416 33.65480060464476" height="33.65480060464476" width="316.416"><g><svg viewBox="0 0 316.416 33.65480060464476" height="33.65480060464476" width="316.416"><g><svg viewBox="0 0 316.416 33.65480060464476" height="33.65480060464476" width="316.416"><g id="textblocktransform"><svg viewBox="0 0 316.416 33.65480060464476" height="33.65480060464476" width="316.416" id="textblock"><g><svg viewBox="0 0 316.416 33.65480060464476" height="33.65480060464476" width="316.416"><g transform="matrix(1,0,0,1,0,0)"><svg width="316.416" viewBox="-0.55 -38.2 367.67 38.7" height="33.65480060464476" data-palette-color="#ffffff"><g class="wordmark-text-0" data-fill-palette-color="primary" id="text-0"><path d="M13.45-33.6L9.35-32.55 18.85-4.75 19.05-4.75 28.1-32.55 23.95-33.6 23.95-36 36.15-36 36.15-33.6 32.05-32.55 20.9 0 15.5 0 3.45-32.55-0.55-33.6-0.55-36 13.45-36 13.45-33.6ZM63.1-13.65L63.1-13.65Q63.1-10.45 62.15-7.55 61.2-4.65 59.45-2.75L59.45-2.75Q57.9-1.05 55.65-0.28 53.4 0.5 50.5 0.5L50.5 0.5Q47.65 0.5 45.42-0.28 43.2-1.05 41.65-2.7L41.65-2.7Q39.95-4.55 39.02-7.3 38.1-10.05 38.1-13.25L38.1-13.25Q38.1-16.5 39.05-19.43 40-22.35 41.75-24.25L41.75-24.25Q43.4-25.95 45.57-26.73 47.75-27.5 50.65-27.5L50.65-27.5Q53.5-27.5 55.75-26.73 58-25.95 59.55-24.3L59.55-24.3Q61.3-22.45 62.2-19.65 63.1-16.85 63.1-13.65ZM44.5-10.75L44.5-10.75Q44.7-8.4 45.4-6.75 46.1-5.1 47.2-4.1L47.2-4.1Q48.3-3.3 49.47-3 50.65-2.7 52.1-3L52.1-3Q54.95-3.85 56.1-7.45L56.1-7.45Q56.7-9.4 56.85-11.65 57-13.9 56.7-16.3L56.7-16.3Q56.5-18.6 55.8-20.28 55.1-21.95 54-22.9L54-22.9Q52.95-23.75 51.75-24.03 50.55-24.3 49.05-24L49.05-24Q46.2-23.15 45.15-19.55L45.15-19.55Q43.95-15.65 44.5-10.75ZM82-23.85L82-23.85Q81.84-23.95 81.67-24 81.5-24.05 81.3-24.05L81.3-24.05Q80.75-24.05 80.05-23.45 79.34-22.85 78.72-21.95 78.09-21.05 77.65-20L77.65-20Q76.95-18.3 76.55-16.35 76.15-14.4 76.15-12.1L76.15-12.1 76.15-3.25 81.55-2.3 81.55 0 66.95 0 66.95-2.3 70.8-3.25 70.8-24 66.95-24.95 66.95-27 74.65-27 75.75-20.4 75.95-20.4Q77.09-23.8 79.05-25.65 81-27.5 83.34-27.5L83.34-27.5Q85.3-27.5 86.59-26.28 87.9-25.05 87.9-23L87.9-23Q87.9-21.5 87.07-20.5 86.25-19.5 84.84-19.5L84.84-19.5Q83.3-19.5 82.52-20.38 81.75-21.25 81.75-22.5L81.75-22.5Q81.75-22.8 81.77-23.05 81.8-23.3 82-23.85ZM93.64-24.25L88.79-24.25 88.79-26.3 93.64-27 94.29-33.25 98.99-33.95 98.99-27 105.39-27 105.39-24.25 98.99-24.25 98.99-6.9Q98.99-5.2 99.04-4.58 99.09-3.95 99.24-3.55L99.24-3.55Q99.39-3.2 99.79-3.08 100.19-2.95 101.09-2.95L101.09-2.95 104.59-2.95 104.59-1.25Q101.99-0.35 100.04 0.08 98.09 0.5 96.94 0.5L96.94 0.5Q94.69 0.5 94.04-1.35L94.04-1.35Q93.84-1.95 93.74-2.9 93.64-3.85 93.64-5.7L93.64-5.7 93.64-24.25ZM131.04-13.05L131.04-13.05 113.59-13.05Q113.59-9.5 114.59-7.15L114.59-7.15Q115.54-5.05 117.22-4.08 118.89-3.1 120.99-3.1L120.99-3.1Q123.29-3.1 125.32-4.08 127.34-5.05 128.89-6.85L128.89-6.85 130.84-5.35Q129.09-2.95 126.44-1.23 123.79 0.5 119.69 0.5L119.69 0.5Q116.19 0.5 113.54-0.98 110.89-2.45 109.49-5.3L109.49-5.3Q108.74-6.85 108.39-8.75 108.04-10.65 108.04-12.8L108.04-12.8Q108.04-19.8 111.27-23.65 114.49-27.5 120.14-27.5L120.14-27.5Q125.39-27.5 128.29-24.33 131.19-21.15 131.19-15.55L131.19-15.55Q131.19-15.05 131.17-14.58 131.14-14.1 131.04-13.05ZM119.94-24.55L119.94-24.55Q114.19-24.55 113.64-15.75L113.64-15.75 125.64-15.75 125.64-17.3Q125.64-20.8 124.14-22.68 122.64-24.55 119.94-24.55ZM144.94-24.7L142.74-23.75 148.39-16.4 153.79-23.75 150.79-24.7 150.79-27 160.69-27 160.69-24.7 157.84-23.75 149.94-14.35 158.59-3.2 161.34-2.3 161.34 0 149.89 0 149.89-2.3 152.74-3.25 146.74-10.95 140.99-3.25 143.99-2.3 143.99 0 134.09 0 134.09-2.3 136.89-3.25 145.19-13 136.89-23.75 134.09-24.7 134.09-27 144.94-27 144.94-24.7Z" fill="#ffffff" data-fill-palette-color="primary"></path><path d="M197.74-24.55L197.74-11.35 194.69-11.35 193.84-16.3 185.99-16.3 185.99-3.6 191.84-2.65 191.84 0 175.79 0 175.79-2.4 180.49-3.6 180.49-32.55 175.79-33.6 175.79-36 204.44-36 204.44-25.3 201.24-25.3 199.64-32.85 185.99-32.85 185.99-19.55 193.84-19.55 194.69-24.55 197.74-24.55ZM211.34-3.25L211.34-23.75 207.49-24.7 207.49-27 216.69-27 216.69-3.25 220.54-2.3 220.54 0 207.49 0 207.49-2.3 211.34-3.25ZM210.69-34.9L210.69-34.9Q210.69-36.4 211.59-37.3 212.49-38.2 213.99-38.2L213.99-38.2Q215.54-38.2 216.44-37.3 217.34-36.4 217.34-34.9L217.34-34.9Q217.34-33.45 216.46-32.55 215.59-31.65 213.99-31.65L213.99-31.65Q212.44-31.65 211.56-32.52 210.69-33.4 210.69-34.9ZM223.38-2.3L227.23-3.25 227.23-23.75 223.38-24.7 223.38-27 231.08-27 232.18-22 232.38-22Q233.88-24.55 236.43-26.03 238.98-27.5 241.88-27.5L241.88-27.5Q246.03-27.5 248.03-24.8L248.03-24.8Q249.03-23.4 249.46-20.88 249.88-18.35 249.88-14.05L249.88-14.05 249.88-3.25 253.73-2.3 253.73 0 241.18 0 241.18-2.3 244.53-3.25 244.53-13.9Q244.53-17.05 244.36-18.68 244.18-20.3 243.73-21.25L243.73-21.25Q243.18-22.5 242.11-23.08 241.03-23.65 239.58-23.65L239.58-23.65Q236.83-23.65 234.83-21.9L234.83-21.9Q232.78-20 232.58-16.1L232.58-16.1 232.58-3.25 235.93-2.3 235.93 0 223.38 0 223.38-2.3ZM256.48-5.85L256.48-5.85Q256.48-9.85 260.18-12.1 263.88-14.35 272.23-15.6L272.23-15.6Q272.03-18.4 271.68-19.95 271.33-21.5 270.78-22.5L270.78-22.5Q270.13-23.75 268.98-24.4 267.83-25.05 266.38-25.05L266.38-25.05Q265.08-25.05 264.03-24.58 262.98-24.1 262.63-23.3L262.63-23.3Q263.33-22.85 263.63-22.08 263.93-21.3 263.93-20.65L263.93-20.65Q263.93-19.4 263.03-18.6 262.13-17.8 260.78-17.8L260.78-17.8Q259.48-17.8 258.66-18.68 257.83-19.55 257.83-21L257.83-21Q257.83-23.1 259.28-24.55 260.73-26 262.98-26.75 265.23-27.5 267.48-27.5L267.48-27.5Q269.63-27.5 271.41-26.85 273.18-26.2 274.38-25.1L274.38-25.1Q277.73-21.85 277.73-14.05L277.73-14.05 277.73-7.05Q277.73-4.6 278.06-3.65 278.38-2.7 279.48-2.7L279.48-2.7 281.73-2.7 281.73-0.95Q277.83 0.5 275.68 0.5L275.68 0.5Q274.13 0.5 273.58-0.63 273.03-1.75 273.03-4.95L273.03-4.95 272.83-4.95Q271.28-2.4 268.73-0.95 266.18 0.5 263.23 0.5L263.23 0.5Q260.08 0.5 258.28-1.2 256.48-2.9 256.48-5.85ZM265.68-2.65L265.68-2.65Q266.93-2.65 268.38-3.38 269.83-4.1 270.83-5.35L270.83-5.35Q271.58-6.25 271.98-7.6 272.38-8.95 272.38-10.8L272.38-10.8Q272.38-11.55 272.33-12.35 272.28-13.15 272.18-13.9L272.18-13.9Q268.33-13.1 266.16-12.2 263.98-11.3 263.06-10.05 262.13-8.8 262.13-7L262.13-7Q262.13-4.85 263.13-3.75 264.13-2.65 265.68-2.65ZM283.48-2.3L287.33-3.25 287.33-23.75 283.48-24.7 283.48-27 291.18-27 292.28-22 292.48-22Q293.98-24.55 296.53-26.03 299.08-27.5 301.98-27.5L301.98-27.5Q306.13-27.5 308.13-24.8L308.13-24.8Q309.13-23.4 309.55-20.88 309.98-18.35 309.98-14.05L309.98-14.05 309.98-3.25 313.83-2.3 313.83 0 301.28 0 301.28-2.3 304.63-3.25 304.63-13.9Q304.63-17.05 304.45-18.68 304.28-20.3 303.83-21.25L303.83-21.25Q303.28-22.5 302.2-23.08 301.13-23.65 299.68-23.65L299.68-23.65Q296.93-23.65 294.93-21.9L294.93-21.9Q292.88-20 292.68-16.1L292.68-16.1 292.68-3.25 296.03-2.3 296.03 0 283.48 0 283.48-2.3ZM329.88-27.5L329.88-27.5Q332.88-27.5 335.08-26.53 337.28-25.55 338.53-23.8 339.78-22.05 339.78-19.7L339.78-19.7Q339.78-17.7 338.85-16.65 337.93-15.6 336.33-15.6L336.33-15.6Q334.73-15.6 333.93-16.53 333.13-17.45 333.13-18.8L333.13-18.8Q333.13-20.05 333.78-20.95 334.43-21.85 335.63-22.2L335.63-22.2Q334.93-23.45 333.53-24.08 332.13-24.7 330.18-24.7L330.18-24.7Q326.38-24.7 324.55-22.15 322.73-19.6 322.73-13.85L322.73-13.85Q322.73-11.3 323.05-9.6 323.38-7.9 324.03-6.7L324.03-6.7Q324.98-5 326.48-4.05 327.98-3.1 330.13-3.1L330.13-3.1Q332.38-3.1 334.53-4.1 336.68-5.1 338.18-7L338.18-7 340.08-5.5Q337.98-2.4 335.2-0.95 332.43 0.5 328.93 0.5L328.93 0.5Q325.38 0.5 322.8-0.93 320.23-2.35 318.78-5.1L318.78-5.1Q316.98-8.45 316.98-13.2L316.98-13.2Q316.98-17.55 318.55-20.75 320.13-23.95 323.05-25.73 325.98-27.5 329.88-27.5ZM366.97-13.05L366.97-13.05 349.52-13.05Q349.52-9.5 350.52-7.15L350.52-7.15Q351.47-5.05 353.15-4.08 354.82-3.1 356.92-3.1L356.92-3.1Q359.22-3.1 361.25-4.08 363.27-5.05 364.82-6.85L364.82-6.85 366.77-5.35Q365.02-2.95 362.37-1.23 359.72 0.5 355.62 0.5L355.62 0.5Q352.12 0.5 349.47-0.98 346.82-2.45 345.42-5.3L345.42-5.3Q344.67-6.85 344.32-8.75 343.97-10.65 343.97-12.8L343.97-12.8Q343.97-19.8 347.2-23.65 350.42-27.5 356.07-27.5L356.07-27.5Q361.32-27.5 364.22-24.33 367.12-21.15 367.12-15.55L367.12-15.55Q367.12-15.05 367.1-14.58 367.07-14.1 366.97-13.05ZM355.87-24.55L355.87-24.55Q350.12-24.55 349.57-15.75L349.57-15.75 361.57-15.75 361.57-17.3Q361.57-20.8 360.07-22.68 358.57-24.55 355.87-24.55Z" fill="#ffffff" data-fill-palette-color="secondary"></path></g></svg></g></svg></g></svg></g></svg></g><g></g></svg></g></svg></g></svg></g><defs></defs></svg><rect width="375.07953" height="94.55696000000003" fill="none" stroke="none" visibility="hidden"></rect></g></svg></g></svg>