<svg xmlns="http://www.w3.org/2000/svg" version="1.1" xmlns:xlink="http://www.w3.org/1999/xlink" xmlns:svgjs="http://svgjs.dev/svgjs" width="1500" height="1500" viewBox="0 0 1500 1500"><rect width="1500" height="1500" fill="#ffffff"></rect><g transform="matrix(0.6666666666666666,0,0,0.6666666666666666,249.39393939393938,438.5856950067477)"><svg viewBox="0 0 396 247" data-background-color="#051726" preserveAspectRatio="xMidYMid meet" height="935" width="1500" xmlns="http://www.w3.org/2000/svg" xmlns:xlink="http://www.w3.org/1999/xlink"><g id="tight-bounds" transform="matrix(1,0,0,1,0.2400000000000091,-0.09999999999999432)"><svg viewBox="0 0 395.52 247.2" height="247.2" width="395.52"><g><svg></svg></g><g><svg viewBox="0 0 395.52 247.2" height="247.2" width="395.52"><g><path d="M55.039 247.2l39.295-68.062 2.854 0-37.79 65.455h276.724l-37.79-65.455 2.854 0 39.295 68.062zM197.76 0l39.295 68.062h-2.853l-36.442-63.119-36.442 63.119-2.853 0z" fill="#000000" fill-rule="nonzero" stroke="none" stroke-width="1" stroke-linecap="butt" stroke-linejoin="miter" stroke-miterlimit="10" stroke-dasharray="" stroke-dashoffset="0" font-family="none" font-weight="none" font-size="none" text-anchor="none" style="mix-blend-mode: normal" data-fill-palette-color="tertiary"></path></g><g transform="matrix(1,0,0,1,0,83.92977503854567)"><svg viewBox="0 0 395.52 79.34044992290863" height="79.34044992290863" width="395.52"><g><svg viewBox="0 0 397.4975999999999 79.73715217252317" height="79.34044992290863" width="395.52"><g><svg viewBox="0 0 397.4975999999999 79.73715217252317" height="79.73715217252317" width="397.4975999999999"><g id="textblocktransform"><svg viewBox="0 0 397.4975999999999 79.73715217252317" height="79.73715217252317" width="397.4975999999999" id="textblock"><g><rect width="397.4975999999999" height="3.7937808128513617" x="0" y="46.5376142787984" fill="#000000" opacity="1" stroke-width="0" stroke="transparent" fill-opacity="1" class="rect-qz-0" data-fill-palette-color="primary" rx="1%" id="qz-0" data-palette-color="#ffffff"></rect></g><g transform="matrix(1,0,0,1,0.9887999999999693,0)"><svg viewBox="0 0 395.52 42.06850075580596" height="42.06850075580596" width="395.52"><g transform="matrix(1,0,0,1,0,0)"><svg width="395.52" viewBox="-0.55 -38.2 363.82 38.7" height="42.06850075580596" data-palette-color="#ffffff"><path d="M13.45-33.6L9.35-32.55 18.85-4.75 19.05-4.75 28.1-32.55 23.95-33.6 23.95-36 36.15-36 36.15-33.6 32.05-32.55 20.9 0 15.5 0 3.45-32.55-0.55-33.6-0.55-36 13.45-36 13.45-33.6ZM60.15-13.65L60.15-13.65Q60.15-10.45 59.2-7.55 58.25-4.65 56.5-2.75L56.5-2.75Q54.95-1.05 52.7-0.28 50.45 0.5 47.55 0.5L47.55 0.5Q44.7 0.5 42.47-0.28 40.25-1.05 38.7-2.7L38.7-2.7Q37-4.55 36.07-7.3 35.15-10.05 35.15-13.25L35.15-13.25Q35.15-16.5 36.1-19.43 37.05-22.35 38.8-24.25L38.8-24.25Q40.45-25.95 42.62-26.73 44.8-27.5 47.7-27.5L47.7-27.5Q50.55-27.5 52.8-26.73 55.05-25.95 56.6-24.3L56.6-24.3Q58.35-22.45 59.25-19.65 60.15-16.85 60.15-13.65ZM41.55-10.75L41.55-10.75Q41.75-8.4 42.45-6.75 43.15-5.1 44.25-4.1L44.25-4.1Q45.35-3.3 46.52-3 47.7-2.7 49.15-3L49.15-3Q52-3.85 53.15-7.45L53.15-7.45Q53.75-9.4 53.9-11.65 54.05-13.9 53.75-16.3L53.75-16.3Q53.55-18.6 52.85-20.28 52.15-21.95 51.05-22.9L51.05-22.9Q50-23.75 48.8-24.03 47.6-24.3 46.1-24L46.1-24Q43.25-23.15 42.2-19.55L42.2-19.55Q41-15.65 41.55-10.75ZM79.05-23.85L79.05-23.85Q78.9-23.95 78.72-24 78.55-24.05 78.34-24.05L78.34-24.05Q77.8-24.05 77.09-23.45 76.4-22.85 75.77-21.95 75.15-21.05 74.7-20L74.7-20Q74-18.3 73.59-16.35 73.2-14.4 73.2-12.1L73.2-12.1 73.2-3.25 78.59-2.3 78.59 0 64 0 64-2.3 67.84-3.25 67.84-24 64-24.95 64-27 71.7-27 72.8-20.4 73-20.4Q74.15-23.8 76.09-25.65 78.05-27.5 80.4-27.5L80.4-27.5Q82.34-27.5 83.65-26.28 84.95-25.05 84.95-23L84.95-23Q84.95-21.5 84.12-20.5 83.3-19.5 81.9-19.5L81.9-19.5Q80.34-19.5 79.57-20.38 78.8-21.25 78.8-22.5L78.8-22.5Q78.8-22.8 78.82-23.05 78.84-23.3 79.05-23.85ZM90.69-24.25L85.84-24.25 85.84-26.3 90.69-27 91.34-33.25 96.04-33.95 96.04-27 102.44-27 102.44-24.25 96.04-24.25 96.04-6.9Q96.04-5.2 96.09-4.58 96.14-3.95 96.29-3.55L96.29-3.55Q96.44-3.2 96.84-3.08 97.24-2.95 98.14-2.95L98.14-2.95 101.64-2.95 101.64-1.25Q99.04-0.35 97.09 0.08 95.14 0.5 93.99 0.5L93.99 0.5Q91.74 0.5 91.09-1.35L91.09-1.35Q90.89-1.95 90.79-2.9 90.69-3.85 90.69-5.7L90.69-5.7 90.69-24.25ZM128.09-13.05L128.09-13.05 110.64-13.05Q110.64-9.5 111.64-7.15L111.64-7.15Q112.59-5.05 114.27-4.08 115.94-3.1 118.04-3.1L118.04-3.1Q120.34-3.1 122.37-4.08 124.39-5.05 125.94-6.85L125.94-6.85 127.89-5.35Q126.14-2.95 123.49-1.23 120.84 0.5 116.74 0.5L116.74 0.5Q113.24 0.5 110.59-0.98 107.94-2.45 106.54-5.3L106.54-5.3Q105.79-6.85 105.44-8.75 105.09-10.65 105.09-12.8L105.09-12.8Q105.09-19.8 108.32-23.65 111.54-27.5 117.19-27.5L117.19-27.5Q122.44-27.5 125.34-24.33 128.24-21.15 128.24-15.55L128.24-15.55Q128.24-15.05 128.22-14.58 128.19-14.1 128.09-13.05ZM116.99-24.55L116.99-24.55Q111.24-24.55 110.69-15.75L110.69-15.75 122.69-15.75 122.69-17.3Q122.69-20.8 121.19-22.68 119.69-24.55 116.99-24.55ZM141.14-24.7L138.94-23.75 144.59-16.4 149.99-23.75 146.99-24.7 146.99-27 156.89-27 156.89-24.7 154.04-23.75 146.14-14.35 154.79-3.2 157.54-2.3 157.54 0 146.09 0 146.09-2.3 148.94-3.25 142.94-10.95 137.19-3.25 140.19-2.3 140.19 0 130.29 0 130.29-2.3 133.09-3.25 141.39-13 133.09-23.75 130.29-24.7 130.29-27 141.14-27 141.14-24.7ZM193.88-24.55L193.88-11.35 190.83-11.35 189.98-16.3 182.13-16.3 182.13-3.6 187.98-2.65 187.98 0 171.93 0 171.93-2.4 176.63-3.6 176.63-32.55 171.93-33.6 171.93-36 200.58-36 200.58-25.3 197.38-25.3 195.78-32.85 182.13-32.85 182.13-19.55 189.98-19.55 190.83-24.55 193.88-24.55ZM207.48-3.25L207.48-23.75 203.63-24.7 203.63-27 212.83-27 212.83-3.25 216.68-2.3 216.68 0 203.63 0 203.63-2.3 207.48-3.25ZM206.83-34.9L206.83-34.9Q206.83-36.4 207.73-37.3 208.63-38.2 210.13-38.2L210.13-38.2Q211.68-38.2 212.58-37.3 213.48-36.4 213.48-34.9L213.48-34.9Q213.48-33.45 212.61-32.55 211.73-31.65 210.13-31.65L210.13-31.65Q208.58-31.65 207.71-32.52 206.83-33.4 206.83-34.9ZM219.53-2.3L223.38-3.25 223.38-23.75 219.53-24.7 219.53-27 227.23-27 228.33-22 228.53-22Q230.03-24.55 232.58-26.03 235.13-27.5 238.03-27.5L238.03-27.5Q242.18-27.5 244.18-24.8L244.18-24.8Q245.18-23.4 245.6-20.88 246.03-18.35 246.03-14.05L246.03-14.05 246.03-3.25 249.88-2.3 249.88 0 237.33 0 237.33-2.3 240.68-3.25 240.68-13.9Q240.68-17.05 240.5-18.68 240.33-20.3 239.88-21.25L239.88-21.25Q239.33-22.5 238.25-23.08 237.18-23.65 235.73-23.65L235.73-23.65Q232.98-23.65 230.98-21.9L230.98-21.9Q228.93-20 228.73-16.1L228.73-16.1 228.73-3.25 232.08-2.3 232.08 0 219.53 0 219.53-2.3ZM252.63-5.85L252.63-5.85Q252.63-9.85 256.33-12.1 260.03-14.35 268.38-15.6L268.38-15.6Q268.18-18.4 267.83-19.95 267.48-21.5 266.93-22.5L266.93-22.5Q266.28-23.75 265.13-24.4 263.98-25.05 262.53-25.05L262.53-25.05Q261.23-25.05 260.18-24.58 259.13-24.1 258.78-23.3L258.78-23.3Q259.48-22.85 259.78-22.08 260.08-21.3 260.08-20.65L260.08-20.65Q260.08-19.4 259.18-18.6 258.28-17.8 256.93-17.8L256.93-17.8Q255.63-17.8 254.8-18.68 253.98-19.55 253.98-21L253.98-21Q253.98-23.1 255.43-24.55 256.88-26 259.13-26.75 261.38-27.5 263.63-27.5L263.63-27.5Q265.78-27.5 267.55-26.85 269.33-26.2 270.53-25.1L270.53-25.1Q273.88-21.85 273.88-14.05L273.88-14.05 273.88-7.05Q273.88-4.6 274.2-3.65 274.53-2.7 275.63-2.7L275.63-2.7 277.88-2.7 277.88-0.95Q273.98 0.5 271.83 0.5L271.83 0.5Q270.28 0.5 269.73-0.63 269.18-1.75 269.18-4.95L269.18-4.95 268.98-4.95Q267.43-2.4 264.88-0.95 262.33 0.5 259.38 0.5L259.38 0.5Q256.23 0.5 254.43-1.2 252.63-2.9 252.63-5.85ZM261.83-2.65L261.83-2.65Q263.08-2.65 264.53-3.38 265.98-4.1 266.98-5.35L266.98-5.35Q267.73-6.25 268.13-7.6 268.53-8.95 268.53-10.8L268.53-10.8Q268.53-11.55 268.48-12.35 268.43-13.15 268.33-13.9L268.33-13.9Q264.48-13.1 262.3-12.2 260.13-11.3 259.2-10.05 258.28-8.8 258.28-7L258.28-7Q258.28-4.85 259.28-3.75 260.28-2.65 261.83-2.65ZM279.62-2.3L283.47-3.25 283.47-23.75 279.62-24.7 279.62-27 287.32-27 288.42-22 288.62-22Q290.12-24.55 292.67-26.03 295.22-27.5 298.12-27.5L298.12-27.5Q302.27-27.5 304.27-24.8L304.27-24.8Q305.27-23.4 305.7-20.88 306.12-18.35 306.12-14.05L306.12-14.05 306.12-3.25 309.97-2.3 309.97 0 297.42 0 297.42-2.3 300.77-3.25 300.77-13.9Q300.77-17.05 300.6-18.68 300.42-20.3 299.97-21.25L299.97-21.25Q299.42-22.5 298.35-23.08 297.27-23.65 295.82-23.65L295.82-23.65Q293.07-23.65 291.07-21.9L291.07-21.9Q289.02-20 288.82-16.1L288.82-16.1 288.82-3.25 292.17-2.3 292.17 0 279.62 0 279.62-2.3ZM326.02-27.5L326.02-27.5Q329.02-27.5 331.22-26.53 333.42-25.55 334.67-23.8 335.92-22.05 335.92-19.7L335.92-19.7Q335.92-17.7 335-16.65 334.07-15.6 332.47-15.6L332.47-15.6Q330.87-15.6 330.07-16.53 329.27-17.45 329.27-18.8L329.27-18.8Q329.27-20.05 329.92-20.95 330.57-21.85 331.77-22.2L331.77-22.2Q331.07-23.45 329.67-24.08 328.27-24.7 326.32-24.7L326.32-24.7Q322.52-24.7 320.7-22.15 318.87-19.6 318.87-13.85L318.87-13.85Q318.87-11.3 319.2-9.6 319.52-7.9 320.17-6.7L320.17-6.7Q321.12-5 322.62-4.05 324.12-3.1 326.27-3.1L326.27-3.1Q328.52-3.1 330.67-4.1 332.82-5.1 334.32-7L334.32-7 336.22-5.5Q334.12-2.4 331.35-0.95 328.57 0.5 325.07 0.5L325.07 0.5Q321.52 0.5 318.95-0.93 316.37-2.35 314.92-5.1L314.92-5.1Q313.12-8.45 313.12-13.2L313.12-13.2Q313.12-17.55 314.7-20.75 316.27-23.95 319.2-25.73 322.12-27.5 326.02-27.5ZM363.12-13.05L363.12-13.05 345.67-13.05Q345.67-9.5 346.67-7.15L346.67-7.15Q347.62-5.05 349.29-4.08 350.97-3.1 353.07-3.1L353.07-3.1Q355.37-3.1 357.39-4.08 359.42-5.05 360.97-6.85L360.97-6.85 362.92-5.35Q361.17-2.95 358.52-1.23 355.87 0.5 351.77 0.5L351.77 0.5Q348.27 0.5 345.62-0.98 342.97-2.45 341.57-5.3L341.57-5.3Q340.82-6.85 340.47-8.75 340.12-10.65 340.12-12.8L340.12-12.8Q340.12-19.8 343.34-23.65 346.57-27.5 352.22-27.5L352.22-27.5Q357.47-27.5 360.37-24.33 363.27-21.15 363.27-15.55L363.27-15.55Q363.27-15.05 363.24-14.58 363.22-14.1 363.12-13.05ZM352.02-24.55L352.02-24.55Q346.27-24.55 345.72-15.75L345.72-15.75 357.72-15.75 357.72-17.3Q357.72-20.8 356.22-22.68 354.72-24.55 352.02-24.55Z" opacity="1" transform="matrix(1,0,0,1,0,0)" fill="#000000" class="wordmark-text-0" data-fill-palette-color="primary" id="text-0"></path></svg></g></svg></g><g transform="matrix(1,0,0,1,0,54.800508614642204)"><svg viewBox="0 0 395.52 24.936643557880966" height="24.936643557880966" width="395.52"><g transform="matrix(1,0,0,1,0,0)"><svg width="395.52" viewBox="2.15 -39 764.4200000000001 48.2" height="24.936643557880966" data-palette-color="#81ffd9"><path d="M16.55-33.85L11.85-32.8 11.85-3.2 16.55-2.15 16.55 0 2.15 0 2.15-2.15 6.85-3.2 6.85-32.8 2.15-33.85 2.15-36 16.55-36 16.55-33.85ZM20.1-2.05L23.95-3 23.95-36 20.1-36.95 20.1-39 28.8-39 28.8-3 32.65-2.05 32.65 0 20.1 0 20.1-2.05ZM35.49-2.05L39.34-3 39.34-36 35.49-36.95 35.49-39 44.2-39 44.2-3 48.05-2.05 48.05 0 35.49 0 35.49-2.05ZM50.94-27L59.14-27 59.14-12.85Q59.14-9.65 59.32-8.03 59.49-6.4 59.94-5.5L59.94-5.5Q60.49-4.3 61.59-3.68 62.69-3.05 64.14-3.05L64.14-3.05Q65.49-3.05 66.74-3.55 67.99-4.05 68.94-4.9L68.94-4.9Q70.99-6.75 71.19-10.65L71.19-10.65 71.19-24 66.84-24.95 66.84-27 76.04-27 76.04-3 79.89-2.05 79.89 0 72.14 0.5 71.59-5 71.39-5Q69.94-2.45 67.44-0.98 64.94 0.5 62.09 0.5L62.09 0.5Q60.19 0.5 58.62-0.23 57.04-0.95 56.14-2.2L56.14-2.2Q55.19-3.6 54.74-6.15 54.29-8.7 54.29-12.95L54.29-12.95 54.29-24 50.94-24.95 50.94-27ZM82.94-2.05L86.79-3 86.79-24 82.94-24.95 82.94-27 90.14-27 91.24-22 91.44-22Q92.89-24.5 95.31-26 97.74-27.5 100.49-27.5L100.49-27.5Q102.54-27.5 104.14-26.73 105.74-25.95 106.49-24.8L106.49-24.8Q107.29-23.55 107.79-21.5L107.79-21.5Q109.39-24.3 111.94-25.9 114.49-27.5 117.39-27.5L117.39-27.5Q119.39-27.5 120.99-26.73 122.59-25.95 123.44-24.6L123.44-24.6Q124.04-23.65 124.39-22.15 124.74-20.65 124.89-18.28 125.04-15.9 125.04-12.25L125.04-12.25 125.04-3 128.89-2.05 128.89 0 116.84 0 116.84-2.05 120.19-3 120.19-14.15Q120.19-17.4 120.02-19 119.84-20.6 119.39-21.5L119.39-21.5Q118.79-22.7 117.72-23.33 116.64-23.95 115.19-23.95L115.19-23.95Q113.94-23.95 112.74-23.45 111.54-22.95 110.59-22.1L110.59-22.1Q109.49-21.1 108.97-19.75 108.44-18.4 108.34-16.35L108.34-16.35 108.34-3 111.69-2.05 111.69 0 100.14 0 100.14-2.05 103.49-3 103.49-14.15Q103.49-17.4 103.31-19 103.14-20.6 102.69-21.5L102.69-21.5Q102.09-22.7 101.02-23.33 99.94-23.95 98.49-23.95L98.49-23.95Q97.24-23.95 96.04-23.45 94.84-22.95 93.89-22.1L93.89-22.1Q92.79-21.1 92.27-19.75 91.74-18.4 91.64-16.35L91.64-16.35 91.64-3 94.99-2.05 94.99 0 82.94 0 82.94-2.05ZM135.54-3L135.54-24 131.69-24.95 131.69-27 140.39-27 140.39-3 144.24-2.05 144.24 0 131.69 0 131.69-2.05 135.54-3ZM134.84-35.05L134.84-35.05Q134.84-36.5 135.69-37.35 136.54-38.2 137.94-38.2L137.94-38.2Q139.39-38.2 140.24-37.35 141.09-36.5 141.09-35.05L141.09-35.05Q141.09-33.65 140.24-32.8 139.39-31.95 137.94-31.95L137.94-31.95Q136.49-31.95 135.66-32.77 134.84-33.6 134.84-35.05ZM147.28-2.05L151.13-3 151.13-24 147.28-24.95 147.28-27 154.48-27 155.58-22 155.78-22Q157.28-24.55 159.83-26.03 162.38-27.5 165.28-27.5L165.28-27.5Q169.44-27.5 171.44-24.8L171.44-24.8Q172.44-23.4 172.86-20.88 173.28-18.35 173.28-14.05L173.28-14.05 173.28-3 177.13-2.05 177.13 0 165.08 0 165.08-2.05 168.44-3 168.44-14.15Q168.44-17.4 168.26-19 168.08-20.6 167.63-21.5L167.63-21.5Q167.03-22.7 165.91-23.33 164.78-23.95 163.23-23.95L163.23-23.95Q160.33-23.95 158.23-22.1L158.23-22.1Q156.18-20.25 155.98-16.35L155.98-16.35 155.98-3 159.33-2.05 159.33 0 147.28 0 147.28-2.05ZM180.13-5.85L180.13-5.85Q180.13-9.75 183.78-12 187.43-14.25 195.88-15.5L195.88-15.5Q195.68-18.45 195.33-20.1 194.98-21.75 194.43-22.75L194.43-22.75Q193.73-24.05 192.48-24.68 191.23-25.3 189.78-25.3L189.78-25.3Q188.38-25.3 187.26-24.8 186.13-24.3 185.73-23.45L185.73-23.45Q186.43-22.95 186.76-22.15 187.08-21.35 187.08-20.65L187.08-20.65Q187.08-19.4 186.26-18.68 185.43-17.95 184.23-17.95L184.23-17.95Q183.03-17.95 182.26-18.75 181.48-19.55 181.48-21L181.48-21Q181.48-23.1 182.93-24.55 184.38-26 186.61-26.75 188.83-27.5 191.08-27.5L191.08-27.5Q193.13-27.5 194.86-26.88 196.58-26.25 197.78-25.05L197.78-25.05Q200.88-21.95 200.88-14.05L200.88-14.05 200.88-6.8Q200.88-4.35 201.21-3.4 201.53-2.45 202.63-2.45L202.63-2.45 204.88-2.45 204.88-0.95Q201.28 0.5 199.28 0.5L199.28 0.5Q197.73 0.5 197.21-0.63 196.68-1.75 196.68-4.95L196.68-4.95 196.48-4.95Q194.93-2.4 192.38-0.95 189.83 0.5 186.88 0.5L186.88 0.5Q183.73 0.5 181.93-1.2 180.13-2.9 180.13-5.85ZM188.98-2.4L188.98-2.4Q190.38-2.4 191.91-3.13 193.43-3.85 194.48-5.15L194.48-5.15Q195.28-6.15 195.66-7.53 196.03-8.9 196.03-10.75L196.03-10.75Q196.03-11.6 195.98-12.43 195.93-13.25 195.83-14L195.83-14Q191.78-13.2 189.48-12.28 187.18-11.35 186.23-10.08 185.28-8.8 185.28-6.9L185.28-6.9Q185.28-4.75 186.26-3.58 187.23-2.4 188.98-2.4ZM210.38-24.5L205.53-24.5 205.53-26.3 210.38-27 211.03-33.3 215.23-33.9 215.23-27 221.63-27 221.63-24.5 215.23-24.5 215.23-6.65Q215.23-4.95 215.28-4.33 215.33-3.7 215.48-3.3L215.48-3.3Q215.63-2.95 216.03-2.83 216.43-2.7 217.33-2.7L217.33-2.7 220.83-2.7 220.83-1.25Q218.43-0.35 216.6 0.08 214.78 0.5 213.68 0.5L213.68 0.5Q211.43 0.5 210.78-1.35L210.78-1.35Q210.58-1.95 210.48-2.9 210.38-3.85 210.38-5.7L210.38-5.7 210.38-24.5ZM227.78-3L227.78-24 223.93-24.95 223.93-27 232.63-27 232.63-3 236.48-2.05 236.48 0 223.93 0 223.93-2.05 227.78-3ZM227.08-35.05L227.08-35.05Q227.08-36.5 227.93-37.35 228.78-38.2 230.18-38.2L230.18-38.2Q231.63-38.2 232.48-37.35 233.33-36.5 233.33-35.05L233.33-35.05Q233.33-33.65 232.48-32.8 231.63-31.95 230.18-31.95L230.18-31.95Q228.73-31.95 227.9-32.77 227.08-33.6 227.08-35.05ZM239.53-2.05L243.38-3 243.38-24 239.53-24.95 239.53-27 246.72-27 247.82-22 248.03-22Q249.53-24.55 252.07-26.03 254.63-27.5 257.52-27.5L257.52-27.5Q261.68-27.5 263.68-24.8L263.68-24.8Q264.68-23.4 265.1-20.88 265.52-18.35 265.52-14.05L265.52-14.05 265.52-3 269.38-2.05 269.38 0 257.32 0 257.32-2.05 260.68-3 260.68-14.15Q260.68-17.4 260.5-19 260.32-20.6 259.88-21.5L259.88-21.5Q259.27-22.7 258.15-23.33 257.02-23.95 255.47-23.95L255.47-23.95Q252.57-23.95 250.47-22.1L250.47-22.1Q248.42-20.25 248.22-16.35L248.22-16.35 248.22-3 251.57-2.05 251.57 0 239.53 0 239.53-2.05ZM295.82 0.5L295.82 0.5Q295.82 4.3 292.6 6.75 289.37 9.2 283.62 9.2L283.62 9.2Q279.82 9.2 277.22 8.45 274.62 7.7 273.3 6.3 271.97 4.9 271.97 2.95L271.97 2.95Q271.97 0.6 273.37-0.68 274.77-1.95 277.22-2.3L277.22-2.3 277.22-2.5Q273.92-3.45 273.92-6.4L273.92-6.4Q273.92-7.45 274.42-8.38 274.92-9.3 275.95-10.1 276.97-10.9 278.57-11.45L278.57-11.45Q276.12-12.35 274.77-14.25 273.42-16.15 273.42-18.9L273.42-18.9Q273.42-22.9 276.2-25.2 278.97-27.5 283.62-27.5L283.62-27.5Q285.97-27.5 287.82-26.93 289.67-26.35 290.97-25.2L290.97-25.2 292.67-25.8 297.27-28 298.12-28 298.12-23.6 297.27-23.6 293.77-24 292.07-24Q293.52-22 293.52-19.2L293.52-19.2Q293.52-15.25 290.8-12.98 288.07-10.7 283.27-10.7L283.27-10.7Q282.77-10.7 282.27-10.73 281.77-10.75 281.27-10.8L281.27-10.8Q279.27-10.5 278.3-9.75 277.32-9 277.32-7.85L277.32-7.85Q277.32-6.7 278.22-6.28 279.12-5.85 281.72-5.85L281.72-5.85 287.52-5.85Q291.62-5.85 293.72-4.33 295.82-2.8 295.82 0.5ZM285.32-2L285.32-2 282.07-2Q278.72-2 277.22-0.85 275.72 0.3 275.72 2.15L275.72 2.15Q275.72 6.7 283.52 6.7L283.52 6.7Q287.77 6.7 290 5.4 292.22 4.1 292.22 1.6L292.22 1.6Q292.22-0.4 290.7-1.2 289.17-2 285.32-2ZM277.82-19.1L277.82-19.1Q277.82-16.1 279.2-14.55 280.57-13 283.47-13L283.47-13Q286.42-13 287.77-14.55 289.12-16.1 289.12-19.1L289.12-19.1Q289.12-22.1 287.77-23.65 286.42-25.2 283.47-25.2L283.47-25.2Q280.57-25.2 279.2-23.65 277.82-22.1 277.82-19.1ZM334.77-24.55L334.77-11.35 332.22-11.35 331.37-16.45 323.02-16.45 323.02-3.35 328.87-2.4 328.87 0 313.32 0 313.32-2.15 318.02-3.35 318.02-32.8 313.32-33.85 313.32-36 341.47-36 341.47-25.3 338.77-25.3 337.17-33.1 323.02-33.1 323.02-19.45 331.37-19.45 332.22-24.55 334.77-24.55ZM348.62-3L348.62-24 344.77-24.95 344.77-27 353.47-27 353.47-3 357.32-2.05 357.32 0 344.77 0 344.77-2.05 348.62-3ZM347.92-35.05L347.92-35.05Q347.92-36.5 348.77-37.35 349.62-38.2 351.02-38.2L351.02-38.2Q352.47-38.2 353.32-37.35 354.17-36.5 354.17-35.05L354.17-35.05Q354.17-33.65 353.32-32.8 352.47-31.95 351.02-31.95L351.02-31.95Q349.57-31.95 348.74-32.77 347.92-33.6 347.92-35.05ZM360.36-2.05L364.21-3 364.21-24 360.36-24.95 360.36-27 367.56-27 368.66-22 368.86-22Q370.36-24.55 372.91-26.03 375.46-27.5 378.36-27.5L378.36-27.5Q382.51-27.5 384.51-24.8L384.51-24.8Q385.51-23.4 385.94-20.88 386.36-18.35 386.36-14.05L386.36-14.05 386.36-3 390.21-2.05 390.21 0 378.16 0 378.16-2.05 381.51-3 381.51-14.15Q381.51-17.4 381.34-19 381.16-20.6 380.71-21.5L380.71-21.5Q380.11-22.7 378.99-23.33 377.86-23.95 376.31-23.95L376.31-23.95Q373.41-23.95 371.31-22.1L371.31-22.1Q369.26-20.25 369.06-16.35L369.06-16.35 369.06-3 372.41-2.05 372.41 0 360.36 0 360.36-2.05ZM393.21-5.85L393.21-5.85Q393.21-9.75 396.86-12 400.51-14.25 408.96-15.5L408.96-15.5Q408.76-18.45 408.41-20.1 408.06-21.75 407.51-22.75L407.51-22.75Q406.81-24.05 405.56-24.68 404.31-25.3 402.86-25.3L402.86-25.3Q401.46-25.3 400.34-24.8 399.21-24.3 398.81-23.45L398.81-23.45Q399.51-22.95 399.84-22.15 400.16-21.35 400.16-20.65L400.16-20.65Q400.16-19.4 399.34-18.68 398.51-17.95 397.31-17.95L397.31-17.95Q396.11-17.95 395.34-18.75 394.56-19.55 394.56-21L394.56-21Q394.56-23.1 396.01-24.55 397.46-26 399.69-26.75 401.91-27.5 404.16-27.5L404.16-27.5Q406.21-27.5 407.94-26.88 409.66-26.25 410.86-25.05L410.86-25.05Q413.96-21.95 413.96-14.05L413.96-14.05 413.96-6.8Q413.96-4.35 414.29-3.4 414.61-2.45 415.71-2.45L415.71-2.45 417.96-2.45 417.96-0.95Q414.36 0.5 412.36 0.5L412.36 0.5Q410.81 0.5 410.29-0.63 409.76-1.75 409.76-4.95L409.76-4.95 409.56-4.95Q408.01-2.4 405.46-0.95 402.91 0.5 399.96 0.5L399.96 0.5Q396.81 0.5 395.01-1.2 393.21-2.9 393.21-5.85ZM402.06-2.4L402.06-2.4Q403.46-2.4 404.99-3.13 406.51-3.85 407.56-5.15L407.56-5.15Q408.36-6.15 408.74-7.53 409.11-8.9 409.11-10.75L409.11-10.75Q409.11-11.6 409.06-12.43 409.01-13.25 408.91-14L408.91-14Q404.86-13.2 402.56-12.28 400.26-11.35 399.31-10.08 398.36-8.8 398.36-6.9L398.36-6.9Q398.36-4.75 399.34-3.58 400.31-2.4 402.06-2.4ZM419.96-2.05L423.81-3 423.81-24 419.96-24.95 419.96-27 427.16-27 428.26-22 428.46-22Q429.96-24.55 432.51-26.03 435.06-27.5 437.96-27.5L437.96-27.5Q442.11-27.5 444.11-24.8L444.11-24.8Q445.11-23.4 445.53-20.88 445.96-18.35 445.96-14.05L445.96-14.05 445.96-3 449.81-2.05 449.81 0 437.76 0 437.76-2.05 441.11-3 441.11-14.15Q441.11-17.4 440.93-19 440.76-20.6 440.31-21.5L440.31-21.5Q439.71-22.7 438.58-23.33 437.46-23.95 435.91-23.95L435.91-23.95Q433.01-23.95 430.91-22.1L430.91-22.1Q428.86-20.25 428.66-16.35L428.66-16.35 428.66-3 432.01-2.05 432.01 0 419.96 0 419.96-2.05ZM466.01-27.5L466.01-27.5Q468.91-27.5 471.03-26.53 473.16-25.55 474.33-23.8 475.51-22.05 475.51-19.7L475.51-19.7Q475.51-17.85 474.73-16.85 473.96-15.85 472.41-15.85L472.41-15.85Q471.01-15.85 470.18-16.65 469.36-17.45 469.36-18.8L469.36-18.8Q469.36-20.05 470.03-20.95 470.71-21.85 471.86-22.2L471.86-22.2Q471.11-23.65 469.73-24.3 468.36-24.95 466.31-24.95L466.31-24.95Q462.21-24.95 460.33-22.28 458.46-19.6 458.46-13.95L458.46-13.95Q458.46-11.5 458.78-9.73 459.11-7.95 459.76-6.7L459.76-6.7Q460.76-4.85 462.41-3.85 464.06-2.85 466.31-2.85L466.31-2.85Q468.61-2.85 470.71-3.85 472.81-4.85 474.31-6.7L474.31-6.7 475.81-5.5Q473.81-2.45 471.21-0.98 468.61 0.5 465.11 0.5L465.11 0.5Q461.61 0.5 459.03-0.93 456.46-2.35 455.01-5.1L455.01-5.1Q453.21-8.45 453.21-13.2L453.21-13.2Q453.21-17.55 454.78-20.75 456.36-23.95 459.26-25.73 462.16-27.5 466.01-27.5ZM483.35-3L483.35-24 479.5-24.95 479.5-27 488.2-27 488.2-3 492.05-2.05 492.05 0 479.5 0 479.5-2.05 483.35-3ZM482.65-35.05L482.65-35.05Q482.65-36.5 483.5-37.35 484.35-38.2 485.75-38.2L485.75-38.2Q487.2-38.2 488.05-37.35 488.9-36.5 488.9-35.05L488.9-35.05Q488.9-33.65 488.05-32.8 487.2-31.95 485.75-31.95L485.75-31.95Q484.3-31.95 483.48-32.77 482.65-33.6 482.65-35.05ZM495.2-5.85L495.2-5.85Q495.2-9.75 498.85-12 502.5-14.25 510.95-15.5L510.95-15.5Q510.75-18.45 510.4-20.1 510.05-21.75 509.5-22.75L509.5-22.75Q508.8-24.05 507.55-24.68 506.3-25.3 504.85-25.3L504.85-25.3Q503.45-25.3 502.33-24.8 501.2-24.3 500.8-23.45L500.8-23.45Q501.5-22.95 501.83-22.15 502.15-21.35 502.15-20.65L502.15-20.65Q502.15-19.4 501.33-18.68 500.5-17.95 499.3-17.95L499.3-17.95Q498.1-17.95 497.33-18.75 496.55-19.55 496.55-21L496.55-21Q496.55-23.1 498-24.55 499.45-26 501.68-26.75 503.9-27.5 506.15-27.5L506.15-27.5Q508.2-27.5 509.93-26.88 511.65-26.25 512.85-25.05L512.85-25.05Q515.95-21.95 515.95-14.05L515.95-14.05 515.95-6.8Q515.95-4.35 516.28-3.4 516.6-2.45 517.7-2.45L517.7-2.45 519.95-2.45 519.95-0.95Q516.35 0.5 514.35 0.5L514.35 0.5Q512.8 0.5 512.28-0.63 511.75-1.75 511.75-4.95L511.75-4.95 511.55-4.95Q510-2.4 507.45-0.95 504.9 0.5 501.95 0.5L501.95 0.5Q498.8 0.5 497-1.2 495.2-2.9 495.2-5.85ZM504.05-2.4L504.05-2.4Q505.45-2.4 506.98-3.13 508.5-3.85 509.55-5.15L509.55-5.15Q510.35-6.15 510.73-7.53 511.1-8.9 511.1-10.75L511.1-10.75Q511.1-11.6 511.05-12.43 511-13.25 510.9-14L510.9-14Q506.85-13.2 504.55-12.28 502.25-11.35 501.3-10.08 500.35-8.8 500.35-6.9L500.35-6.9Q500.35-4.75 501.33-3.58 502.3-2.4 504.05-2.4ZM521.55-2.05L525.4-3 525.4-36 521.55-36.95 521.55-39 530.25-39 530.25-3 534.1-2.05 534.1 0 521.55 0 521.55-2.05ZM585.99-33.85L581.79-32.8 581.79-3.2 585.99-2.15 585.99 0 572.59 0 572.59-2.15 576.79-3.2 576.79-17.05 559.84-17.05 559.84-3.2 564.04-2.15 564.04 0 550.64 0 550.64-2.15 554.84-3.2 554.84-32.8 550.64-33.85 550.64-36 564.04-36 564.04-33.85 559.84-32.8 559.84-19.95 576.79-19.95 576.79-32.8 572.59-33.85 572.59-36 585.99-36 585.99-33.85ZM614.14-13.75L614.14-13.75Q614.14-10.5 613.16-7.58 612.19-4.65 610.44-2.75L610.44-2.75Q608.94-1.1 606.74-0.3 604.54 0.5 601.74 0.5L601.74 0.5Q598.99 0.5 596.84-0.28 594.69-1.05 593.19-2.65L593.19-2.65Q591.49-4.5 590.56-7.23 589.64-9.95 589.64-13.15L589.64-13.15Q589.64-16.4 590.59-19.38 591.54-22.35 593.34-24.25L593.34-24.25Q594.94-25.95 597.06-26.73 599.19-27.5 601.94-27.5L601.94-27.5Q604.69-27.5 606.89-26.73 609.09-25.95 610.59-24.35L610.59-24.35Q612.34-22.5 613.24-19.73 614.14-16.95 614.14-13.75ZM594.99-13.7L594.99-13.7Q594.99-10.65 595.46-8.43 595.94-6.2 596.79-4.75L596.79-4.75Q597.64-3.5 598.81-2.8 599.99-2.1 601.89-2.1L601.89-2.1Q605.34-2.1 607.04-4.45L607.04-4.45Q607.94-5.75 608.36-8.05 608.79-10.35 608.79-13.35L608.79-13.35Q608.79-16.35 608.31-18.6 607.84-20.85 606.99-22.25L606.99-22.25Q606.19-23.55 604.96-24.23 603.74-24.9 601.84-24.9L601.84-24.9Q598.34-24.9 596.79-22.6L596.79-22.6Q594.99-19.8 594.99-13.7ZM633.29-24.1L633.29-24.1Q633.09-24.25 632.81-24.33 632.54-24.4 632.29-24.4L632.29-24.4Q631.69-24.4 630.99-23.85 630.29-23.3 629.64-22.38 628.99-21.45 628.44-20.25L628.44-20.25Q627.74-18.55 627.34-16.53 626.94-14.5 626.94-12.35L626.94-12.35 626.94-3 632.34-2.05 632.34 0 618.24 0 618.24-2.05 622.09-3 622.09-24 618.24-24.95 618.24-27 625.44-27 626.54-20.4 626.74-20.4Q627.89-23.8 629.84-25.65 631.79-27.5 634.14-27.5L634.14-27.5Q636.09-27.5 637.39-26.28 638.69-25.05 638.69-23L638.69-23Q638.69-21.5 637.91-20.63 637.14-19.75 635.84-19.75L635.84-19.75Q634.54-19.75 633.79-20.58 633.04-21.4 633.04-22.75L633.04-22.75Q633.04-23.05 633.09-23.33 633.14-23.6 633.29-24.1ZM644.98-3L644.98-24 641.13-24.95 641.13-27 649.83-27 649.83-3 653.68-2.05 653.68 0 641.13 0 641.13-2.05 644.98-3ZM644.28-35.05L644.28-35.05Q644.28-36.5 645.13-37.35 645.98-38.2 647.38-38.2L647.38-38.2Q648.83-38.2 649.68-37.35 650.53-36.5 650.53-35.05L650.53-35.05Q650.53-33.65 649.68-32.8 648.83-31.95 647.38-31.95L647.38-31.95Q645.93-31.95 645.11-32.77 644.28-33.6 644.28-35.05ZM662.68-2.8L675.43-2.8 676.43-9.6 679.28-9.6 679.28 0 657.13 0 657.13-2.8 673.53-24.2 661.83-24.2 660.63-17.65 657.78-17.65 657.78-27 679.08-27 679.08-24.2 662.68-2.8ZM708.63-13.75L708.63-13.75Q708.63-10.5 707.65-7.58 706.68-4.65 704.93-2.75L704.93-2.75Q703.43-1.1 701.23-0.3 699.03 0.5 696.23 0.5L696.23 0.5Q693.48 0.5 691.33-0.28 689.18-1.05 687.68-2.65L687.68-2.65Q685.98-4.5 685.05-7.23 684.13-9.95 684.13-13.15L684.13-13.15Q684.13-16.4 685.08-19.38 686.03-22.35 687.83-24.25L687.83-24.25Q689.43-25.95 691.55-26.73 693.68-27.5 696.43-27.5L696.43-27.5Q699.18-27.5 701.38-26.73 703.58-25.95 705.08-24.35L705.08-24.35Q706.83-22.5 707.73-19.73 708.63-16.95 708.63-13.75ZM689.48-13.7L689.48-13.7Q689.48-10.65 689.95-8.43 690.43-6.2 691.28-4.75L691.28-4.75Q692.13-3.5 693.3-2.8 694.48-2.1 696.38-2.1L696.38-2.1Q699.83-2.1 701.53-4.45L701.53-4.45Q702.43-5.75 702.85-8.05 703.28-10.35 703.28-13.35L703.28-13.35Q703.28-16.35 702.8-18.6 702.33-20.85 701.48-22.25L701.48-22.25Q700.68-23.55 699.45-24.23 698.23-24.9 696.33-24.9L696.33-24.9Q692.83-24.9 691.28-22.6L691.28-22.6Q689.48-19.8 689.48-13.7ZM712.73-2.05L716.58-3 716.58-24 712.73-24.95 712.73-27 719.93-27 721.03-22 721.23-22Q722.73-24.55 725.28-26.03 727.83-27.5 730.73-27.5L730.73-27.5Q734.88-27.5 736.88-24.8L736.88-24.8Q737.88-23.4 738.3-20.88 738.73-18.35 738.73-14.05L738.73-14.05 738.73-3 742.58-2.05 742.58 0 730.53 0 730.53-2.05 733.88-3 733.88-14.15Q733.88-17.4 733.7-19 733.53-20.6 733.08-21.5L733.08-21.5Q732.48-22.7 731.35-23.33 730.23-23.95 728.68-23.95L728.68-23.95Q725.78-23.95 723.68-22.1L723.68-22.1Q721.63-20.25 721.43-16.35L721.43-16.35 721.43-3 724.78-2.05 724.78 0 712.73 0 712.73-2.05ZM755.87-1.8L755.87-1.8Q758.67-1.8 760.45-2.95 762.22-4.1 762.22-6.15L762.22-6.15Q762.22-7.8 761.12-8.8 760.02-9.8 758.4-10.43 756.77-11.05 755.12-11.5L755.12-11.5Q753.07-12.15 751.17-13.03 749.27-13.9 748.07-15.45 746.87-17 746.87-19.55L746.87-19.55Q746.87-23.15 749.5-25.33 752.12-27.5 756.82-27.5L756.82-27.5Q760.82-27.5 763.15-25.83 765.47-24.15 765.47-21.25L765.47-21.25Q765.47-19.7 764.77-18.78 764.07-17.85 762.77-17.85L762.77-17.85Q761.62-17.85 760.87-18.55 760.12-19.25 760.12-20.35L760.12-20.35Q760.12-21.3 760.62-22.08 761.12-22.85 761.92-23.2L761.92-23.2Q761.17-24.25 760-24.73 758.82-25.2 756.97-25.2L756.97-25.2Q753.97-25.2 752.47-24.13 750.97-23.05 750.97-20.95L750.97-20.95Q750.97-19.45 751.7-18.57 752.42-17.7 753.82-17.1 755.22-16.5 757.27-15.85L757.27-15.85Q758.97-15.35 760.62-14.73 762.27-14.1 763.62-13.2 764.97-12.3 765.77-10.95 766.57-9.6 766.57-7.6L766.57-7.6Q766.57-5.05 765.17-3.23 763.77-1.4 761.32-0.45 758.87 0.5 755.67 0.5L755.67 0.5Q751.27 0.5 748.57-1.3 745.87-3.1 745.87-6.15L745.87-6.15Q745.87-7.75 746.6-8.68 747.32-9.6 748.67-9.6L748.67-9.6Q749.87-9.6 750.7-8.9 751.52-8.2 751.52-7.05L751.52-7.05Q751.52-6.1 751-5.25 750.47-4.4 749.72-4L749.72-4Q750.37-3.05 752.05-2.43 753.72-1.8 755.87-1.8Z" opacity="1" transform="matrix(1,0,0,1,0,0)" fill="#000000" class="slogan-text-1" data-fill-palette-color="secondary" id="text-1"></path></svg></g></svg></g></svg></g></svg></g></svg></g></svg></g></svg></g><defs></defs></svg><rect width="395.52" height="247.2" fill="none" stroke="none" visibility="hidden"></rect></g></svg></g></svg>